<svg width="80" height="84" viewBox="0 0 80 84" fill="none" xmlns="http://www.w3.org/2000/svg">
<path d="M39.3 84C37.7 84 36.1667 83.7 34.7 83.1C33.2333 82.5 31.9333 81.6333 30.8 80.5L10.4 60L13.4 56.9C14.4667 55.8333 15.7167 55.1167 17.15 54.75C18.5833 54.3833 20 54.4 21.4 54.8L28 56.7V24C28 22.8667 28.3833 21.9167 29.15 21.15C29.9167 20.3833 30.8667 20 32 20C33.1333 20 34.0833 20.3833 34.85 21.15C35.6167 21.9167 36 22.8667 36 24V67.3L26.3 64.6L36.5 74.8C36.8333 75.1333 37.25 75.4167 37.75 75.65C38.25 75.8833 38.7667 76 39.3 76H56C58.2 76 60.0833 75.2167 61.65 73.65C63.2167 72.0833 64 70.2 64 68V52C64 50.8667 64.3833 49.9167 65.15 49.15C65.9167 48.3833 66.8667 48 68 48C69.1333 48 70.0833 48.3833 70.85 49.15C71.6167 49.9167 72 50.8667 72 52V68C72 72.4 70.4333 76.1667 67.3 79.3C64.1667 82.4333 60.4 84 56 84H39.3ZM40 56V40C40 38.8667 40.3833 37.9167 41.15 37.15C41.9167 36.3833 42.8667 36 44 36C45.1333 36 46.0833 36.3833 46.85 37.15C47.6167 37.9167 48 38.8667 48 40V56H40ZM52 56V44C52 42.8667 52.3833 41.9167 53.15 41.15C53.9167 40.3833 54.8667 40 56 40C57.1333 40 58.0833 40.3833 58.85 41.15C59.6167 41.9167 60 42.8667 60 44V56H52ZM80 24H60V18H71.6C67.2 14.1333 62.3 11.1667 56.9 9.1C51.5 7.03333 45.8667 6 40 6C34.1333 6 28.5 7.03333 23.1 9.1C17.7 11.1667 12.8 14.1333 8.4 18H20V24H0V4H6V12.1C10.8 8.16667 16.1 5.16667 21.9 3.1C27.7 1.03333 33.7333 0 40 0C46.2667 0 52.3 1.03333 58.1 3.1C63.9 5.16667 69.2 8.16667 74 12.1V4H80V24Z" fill="black"/>
</svg>
