<svg width="58" height="70" viewBox="0 0 58 70" fill="none" xmlns="http://www.w3.org/2000/svg">
<path d="M26 70C24.4444 70 22.9861 69.6667 21.625 69C20.2639 68.3333 19.1111 67.3889 18.1667 66.1667L0 43.0833L1.58333 41.4167C2.69444 40.25 4.02778 39.5556 5.58333 39.3333C7.13889 39.1111 8.58333 39.4167 9.91667 40.25L16.0833 44V16.6667C16.0833 15.7222 16.4028 14.9306 17.0417 14.2917C17.6806 13.6528 18.4722 13.3333 19.4167 13.3333C20.3611 13.3333 21.1667 13.6528 21.8333 14.2917C22.5 14.9306 22.8333 15.7222 22.8333 16.6667V56L14.75 51L23.4167 62.0833C23.75 62.4722 24.1389 62.7778 24.5833 63C25.0278 63.2222 25.5 63.3333 26 63.3333H44.4167C46.25 63.3333 47.8194 62.6806 49.125 61.375C50.4306 60.0694 51.0833 58.5 51.0833 56.6667V43.3333C51.0833 42.3889 50.7639 41.5972 50.125 40.9583C49.4861 40.3194 48.6944 40 47.75 40H29.5V33.3333H47.75C50.5278 33.3333 52.8889 34.3056 54.8333 36.25C56.7778 38.1944 57.75 40.5556 57.75 43.3333V56.6667C57.75 60.3333 56.4444 63.4722 53.8333 66.0833C51.2222 68.6944 48.0833 70 44.4167 70H26V70M5 25C4.27778 23.7778 3.72222 22.4583 3.33333 21.0417C2.94444 19.625 2.75 18.1667 2.75 16.6667C2.75 12.0556 4.375 8.125 7.625 4.875C10.875 1.625 14.8056 0 19.4167 0C24.0278 0 27.9583 1.625 31.2083 4.875C34.4583 8.125 36.0833 12.0556 36.0833 16.6667C36.0833 18.1667 35.8889 19.625 35.5 21.0417C35.1111 22.4583 34.5556 23.7778 33.8333 25L28.0833 21.6667C28.5278 20.8889 28.8611 20.0972 29.0833 19.2917C29.3056 18.4861 29.4167 17.6111 29.4167 16.6667C29.4167 13.8889 28.4444 11.5278 26.5 9.58333C24.5556 7.63889 22.1944 6.66667 19.4167 6.66667C16.6389 6.66667 14.2778 7.63889 12.3333 9.58333C10.3889 11.5278 9.41667 13.8889 9.41667 16.6667C9.41667 17.6111 9.52778 18.4861 9.75 19.2917C9.97222 20.0972 10.3056 20.8889 10.75 21.6667L5 25V25M32.9167 48.3333V48.3333V48.3333V48.3333V48.3333V48.3333V48.3333V48.3333V48.3333V48.3333V48.3333V48.3333V48.3333V48.3333V48.3333V48.3333" fill="black"/>
</svg>
